<svg width="148" height="22" viewBox="0 0 148 22" fill="none" xmlns="http://www.w3.org/2000/svg">
    <path fill-rule="evenodd" clip-rule="evenodd" d="M63.189 0c2.393 0 4.33 1.986 4.33 4.433v.521l-.001.108c0 .198-.002.389-.004.48h-3.108L64.4 4.433c0-.687-.546-1.243-1.215-1.243h-9.82c-.67 0-1.215.556-1.215 1.243v.638c0 .687.546 1.243 1.215 1.243h3.064l.406-.001c5.633-.003 6.3-.013 6.353-.03 2.36.033 4.327 2.012 4.327 4.459v.64c0 2.447-1.937 4.433-4.33 4.433h-9.82c-2.393 0-4.33-1.986-4.33-4.433v-.64c0-.116.005-.417.013-.53h3.095v.002l.01 1.168c0 .687.545 1.245 1.214 1.245h9.82c.67 0 1.215-.555 1.215-1.242v-.64c0-.688-.543-1.24-1.214-1.24h-9.82c-2.393 0-4.33-1.987-4.33-4.434v-.638c0-2.447 1.937-4.433 4.33-4.433h9.82zm-31.14.139v5.74h2.417l6.501-5.74h7.016l-9.105 7.639 10.173 7.986h-7.294l-7.43-6H32.05v6h-5.156V.139h5.156zm89.428 5.068V2.905h2.987v2.302h7.471v2.53h-7.471v3.774c.012 1.168.563 1.415 1.157 1.415h2.712c.916 0 1.212-.358 1.22-1.325V9.846h2.755s.021.831.016 1.552c-.006.707-.031 1.543-.121 1.953-.404 1.842-1.534 2.346-3.579 2.374l-3.718-.036c-1.755-.054-2.627-.995-3.044-1.922a4.497 4.497 0 0 1-.344-1.245c-.047-.353-.005-.576-.005-.576l-.031-4.21h-2.311V5.208h2.306zm-7.32 2.213h-4.155c-.687 0-1.238.19-1.269.916v7.05h-2.987V4.826h2.987v.333c.422-.247 1.014-.332 1.606-.332h3.537c2.391 0 4.312 1.242 4.364 4.363v1.482h-2.761V8.748a1.32 1.32 0 0 0-1.322-1.328zm-24.676 4.132V9.291a4.132 4.132 0 0 1 4.14-4.127h6.426a4.132 4.132 0 0 1 4.137 4.127v2.261a4.132 4.132 0 0 1-4.137 4.127H93.62a4.134 4.134 0 0 1-4.14-4.127zm4.14 1.158h6.426c.644 0 1.161-.52 1.161-1.158V9.291a1.16 1.16 0 0 0-1.161-1.158H93.62a1.16 1.16 0 0 0-1.163 1.158v2.261c0 .638.52 1.158 1.163 1.158zM77.62 8.128c-.69 0-1.248.558-1.248 1.247v2.141c0 .69.558 1.248 1.248 1.248h6.07c.689 0 1.247-.558 1.247-1.248v-2.14c0-.69-.558-1.248-1.248-1.248h-6.07zm10.358 8.742a4.362 4.362 0 0 1-4.363 4.364h-5.84a4.362 4.362 0 0 1-4.364-4.364v-.563l2.98.036v.524c0 .765.62 1.387 1.386 1.387h5.84c.764 0 1.387-.62 1.387-1.387v-.905l.002-.448a4.181 4.181 0 0 1-1.312.209h-6.069a4.21 4.21 0 0 1-4.21-4.21V9.375a4.211 4.211 0 0 1 4.21-4.211h5.128c.463 0 1.518.092 2.251.517v-.515h2.977v10.799l-.003.905zM68.965 5.32h2.987v10.37h-2.987V5.32zm0-4.041h2.987v3.007h-2.987V1.28zm67.879 10.86v.507c0 .27.232.511.545.511h6.628a.53.53 0 0 0 .546-.511v-.507a.53.53 0 0 0-.546-.512h-6.628a.53.53 0 0 0-.545.512zm6.888-3.08c.409 0 .802.077 1.16.216v-.517c.031-.985-.288-1.073-1.052-1.073h-5.468c-.625 0-.869.196-.887.872v.232l-2.614.051v-.08c0-2.179.594-3.46 3.198-3.596h5.516c2.254 0 4.158 1.335 4.158 3.597v6.962h-2.851v-.27c-.479.223-1.078.267-1.477.267h-6.059c-1.724 0-3.136-1.353-3.136-3.039v-.586c0-1.685 1.41-3.039 3.136-3.039h6.376v.003zM9.102.139h6.713l9.244 15.625h-5.737L17.719 13H7.27l-1.511 2.763H0L9.103.139zm.096 9.496h6.597l-3.345-5.87-3.252 5.87z" fill="#fff"/>
</svg>
