<svg width="148" height="21" viewBox="0 0 148 21" xmlns="http://www.w3.org/2000/svg">
    <path d="M63.189 0c2.393 0 4.33 1.952 4.33 4.358v.46c-.001.243-.003.516-.005.63h-3.108l-.005-1.09c0-.676-.546-1.222-1.215-1.222h-9.82c-.67 0-1.215.546-1.215 1.222v.627c0 .675.546 1.221 1.215 1.221h4.413l.27-.001h.758l.234-.001h.655l.202-.001h.38l.179-.001h.335l.717-.003.242-.001c1.185-.005 1.408-.012 1.438-.022 2.36.033 4.327 1.978 4.327 4.383v.63c0 2.405-1.937 4.357-4.33 4.357h-9.82c-2.393 0-4.33-1.952-4.33-4.357v-.63c0-.114.005-.41.013-.521h3.095l.01 1.15a1.22 1.22 0 0 0 1.214 1.225h9.82c.67 0 1.215-.547 1.215-1.222v-.63c0-.675-.543-1.219-1.214-1.219h-9.82c-2.393 0-4.33-1.952-4.33-4.357v-.627c0-2.406 1.937-4.358 4.33-4.358h9.82zm-31.14.137v5.642h2.417L40.967.137h7.016l-9.105 7.508 10.173 7.85h-7.294l-7.43-5.897H32.05v5.898h-5.156V.136h5.156zm89.428 4.982V2.855h2.987V5.12h7.471v2.486h-7.471v3.71c.012 1.148.563 1.391 1.157 1.391h2.712c.916 0 1.212-.352 1.22-1.302V9.679h2.755s.02.817.016 1.525c-.006.695-.031 1.517-.121 1.92-.404 1.81-1.534 2.306-3.58 2.334l-3.717-.036c-1.755-.053-2.627-.979-3.044-1.889a4.363 4.363 0 0 1-.344-1.224c-.047-.347-.005-.567-.005-.567l-.031-4.137h-2.31V5.119h2.305zm-7.32 2.175h-4.155c-.687 0-1.238.187-1.269.9v6.93h-2.987V4.744h2.987v.327c.422-.243 1.014-.326 1.606-.326h3.537c2.39 0 4.312 1.221 4.364 4.289v1.457h-2.76V8.599a1.309 1.309 0 0 0-1.323-1.305M89.48 11.355V9.132c0-2.24 1.852-4.056 4.14-4.056h6.426c2.285 0 4.137 1.816 4.137 4.056v2.223c0 2.241-1.852 4.057-4.137 4.057H93.62c-2.284 0-4.14-1.816-4.14-4.057m4.14 1.139h6.427c.644 0 1.16-.511 1.16-1.139V9.132a1.15 1.15 0 0 0-1.16-1.138H93.62c-.643 0-1.163.511-1.163 1.138v2.223c0 .628.52 1.139 1.163 1.139m-16-4.505c-.69 0-1.248.55-1.248 1.227v2.104c0 .678.558 1.227 1.248 1.227h6.07c.689 0 1.247-.55 1.247-1.227V9.216c0-.678-.558-1.227-1.248-1.227h-6.07zm10.358 8.594c0 2.37-1.953 4.29-4.363 4.29h-5.84c-2.411 0-4.364-1.92-4.364-4.29v-.554l2.98.036v.516c0 .75.62 1.363 1.386 1.363h5.84c.764 0 1.387-.61 1.387-1.363v-.89l.003-.44a4.25 4.25 0 0 1-1.313.204h-6.069c-2.326 0-4.21-1.854-4.21-4.137V9.216c0-2.286 1.887-4.14 4.21-4.14h5.128c.463 0 1.518.09 2.251.508v-.506h2.977v10.615l-.003.89zM68.965 5.23h2.987v10.192h-2.987V5.23zm0-3.973h2.987v2.956h-2.987V1.257zm67.88 10.675v.498c0 .266.23.504.545.504h6.627c.314 0 .546-.238.546-.504v-.498c0-.265-.232-.503-.546-.503h-6.627c-.314 0-.546.238-.546.503m6.888-3.027c.409 0 .802.076 1.16.212V8.61c.03-.969-.288-1.055-1.052-1.055h-5.468c-.625 0-.87.193-.887.858v.227l-2.614.05v-.078c0-2.142.594-3.401 3.198-3.535h5.516c2.254 0 4.158 1.312 4.158 3.535v6.844h-2.851v-.265c-.479.22-1.078.263-1.477.263h-6.059c-1.724 0-3.136-1.33-3.136-2.987v-.577c0-1.656 1.41-2.987 3.136-2.987h6.376v.003zM9.102.137h6.713l9.244 15.359h-5.737l-1.603-2.717H7.27l-1.511 2.717H0L9.103.136zm.096 9.334h6.597L12.45 3.7 9.198 9.471z" fill="#DC291E" fill-rule="evenodd"/>
</svg>
