<svg xmlns="http://www.w3.org/2000/svg" xmlns:xlink="http://www.w3.org/1999/xlink" width="149" height="64" viewBox="0 0 149 64">
  <defs>
    <clipPath id="clip-_149x64">
      <rect width="149" height="64"/>
    </clipPath>
  </defs>
  <g id="_149x64" data-name="149x64" clip-path="url(#clip-_149x64)">
    <path id="Union_1" data-name="Union 1" d="M-162.507-39.767c0-1.7,1.6-3.072,3.717-3.072,1.7,0,3.377,1.065,3.535,2.1l-2.433,0c-.055-.35-.346-.431-.917-.431a1.407,1.407,0,0,0-1.205,1.542,1.443,1.443,0,0,0,1.208,1.573h.939l.012-.878h-1.07v-1.256h3.573v2.9a11.973,11.973,0,0,1-3.641.662A3.444,3.444,0,0,1-162.507-39.767Zm7.7,0c0-1.7,1.6-3.072,3.718-3.072s3.717,1.374,3.717,3.072-1.6,3.071-3.717,3.071S-154.806-38.071-154.806-39.767Zm2.513-.093c0,.921.606,1.667,1.205,1.667s1.205-.746,1.205-1.667-.606-1.665-1.205-1.665S-152.294-40.779-152.294-39.86Zm-20.189,1.2,2.679.018a1.028,1.028,0,0,0,.027.3c.04.205.271.374.655.374s.635-.127.635-.482-.994-.532-.994-.532l-1.659-.434c-.827-.343-1.371-.79-1.371-1.437,0-1.048,1.422-1.9,3.176-1.9s3.175.85,3.175,1.9l-2.328.014s-.04-.137-.093-.273-.252-.259-.569-.259-.569.15-.569.41.264.431.555.5,1.016.168,1.016.168c1.4.193,2.134.876,2.134,1.733,0,1.12-1.542,1.872-3.3,1.872S-172.482-37.542-172.482-38.661Zm42.792,1.719-.239-.764h-1.851l-.345.764h-2.514l2.038-5.651h3.705l1.931,5.651Zm-1.826-2.375h1.3l-.658-2.024Zm-6.563,2.375v-3.9h-2.065V-42.62h6.616v1.774h-2.011v3.9Zm-27.39,0V-42.62h2.487v5.678Zm22.864-.092a2.982,2.982,0,0,1-.158-.491c-.053-.246-.265-1.2-.582-1.392a1.594,1.594,0,0,0-.9-.082v1.965h-2.567v-5.678h4.5a1.712,1.712,0,0,1,1.809,1.6,1.626,1.626,0,0,1-1.218,1.509,3.393,3.393,0,0,1,.761.307c.317.192.5,1.092.5,1.092l.265,1.174Zm-1.641-3.1h1a.624.624,0,0,0,.622-.643.644.644,0,0,0-.618-.669h-1Zm-21.408-3.81,1.495-.833,1.5.833-1.5.875Zm23.974-4.182c0-1.7,1.6-3.072,3.717-3.072s3.717,1.375,3.717,3.072-1.6,3.072-3.717,3.072S-141.68-46.431-141.68-48.128Zm2.512-.092c0,.92.606,1.666,1.205,1.666s1.205-.746,1.205-1.666-.606-1.666-1.205-1.666S-139.168-49.138-139.168-48.219Zm10.827,1.093V-50.95h2.567V-47.4a.9.9,0,0,0,.887.914A.9.9,0,0,0-124-47.4V-50.95h2.567v3.823c0,1.364-1.548,2.023-3.455,2.023S-128.341-45.762-128.341-47.127Zm-5.372,1.829V-50.95h2.647v4.15h2.514v1.5Zm-15.639,0V-50.95h4.264a2.826,2.826,0,0,1,2.828,2.826,2.829,2.829,0,0,1-2.831,2.826Zm2.593-1.347h.675a1.483,1.483,0,0,0,1.389-1.57,1.493,1.493,0,0,0-1.385-1.584h-.679Zm-5.584,1.347-.238-.765h-1.853l-.345.765h-2.513l2.038-5.652h3.7l1.931,5.652Zm-1.825-2.467h1.3l-.658-2.025Zm-6.564,2.467-1.641-2.812V-45.3h-2.2V-50.95h3.149l1.641,2.84v-2.84h2.17V-45.3Zm-6.827,0-.238-.765h-1.852l-.344.765h-2.515l2.038-5.652h3.705l1.931,5.652Zm-1.826-2.375h1.3l-.658-2.025Zm26.2-13.516a12.635,12.635,0,0,1-9.672,4.5A12.678,12.678,0,0,1-165.148-66.3h-1.12v9.614h-6.084V-66.3h-.751a3.045,3.045,0,0,1-3.026-2.731,2.963,2.963,0,0,1-.016-.311,2.938,2.938,0,0,1,.016-.311,3.045,3.045,0,0,1,3.026-2.731h.751V-82h6.084v9.624h1.116A12.681,12.681,0,0,1-152.862-82a12.63,12.63,0,0,1,9.671,4.5,12.635,12.635,0,0,1,9.674-4.5,12.679,12.679,0,0,1,12.292,9.649h.684a3.109,3.109,0,0,1,.432-.031,3.045,3.045,0,0,1,3.042,3.042,3.033,3.033,0,0,1-.877,2.136l0,0a3,3,0,0,1-.888.621,3.005,3.005,0,0,1-1.278.283c-.076,0-.153,0-.229-.009h-.892a12.68,12.68,0,0,1-12.288,9.623A12.636,12.636,0,0,1-143.19-61.189Zm-1.851-8.153a11.536,11.536,0,0,0,11.525,11.524A11.542,11.542,0,0,0-122.4-66.308h-3.946a7.8,7.8,0,0,1-7.169,4.754,7.8,7.8,0,0,1-7.79-7.789,7.8,7.8,0,0,1,7.79-7.789,7.8,7.8,0,0,1,7.178,4.776l3.946,0a11.543,11.543,0,0,0-11.124-8.514A11.537,11.537,0,0,0-145.041-69.342Zm-19.346,0a11.537,11.537,0,0,0,11.525,11.524A11.507,11.507,0,0,0-143.9-62.11a12.623,12.623,0,0,1-1.866-4.029,7.8,7.8,0,0,1-7.1,4.585,7.8,7.8,0,0,1-7.789-7.789,7.8,7.8,0,0,1,7.789-7.789,7.8,7.8,0,0,1,7.1,4.59,12.624,12.624,0,0,1,1.867-4.035,11.508,11.508,0,0,0-8.964-4.29A11.538,11.538,0,0,0-164.387-69.342Zm-6.831,11.524h3.817V-66.3h-3.817Zm37.7-4.869a6.658,6.658,0,0,0,5.918-3.62h-11.839A6.66,6.66,0,0,0-133.517-62.688Zm-19.346,0a6.659,6.659,0,0,0,5.919-3.62h-11.839A6.661,6.661,0,0,0-152.862-62.688Zm-17.2-6.652a3.023,3.023,0,0,1-.676,1.908h5.361a12.749,12.749,0,0,1-.144-1.911,12.606,12.606,0,0,1,.143-1.9l-5.359,0A3.023,3.023,0,0,1-170.061-69.34Zm-4.911-.384a1.926,1.926,0,0,0-.039.384,1.911,1.911,0,0,0,1.908,1.908,1.911,1.911,0,0,0,1.909-1.908,1.911,1.911,0,0,0-1.909-1.909A1.912,1.912,0,0,0-174.973-69.724Zm52.956.384a1.911,1.911,0,0,0,1.723,1.9h.206a1.869,1.869,0,0,0,.877-.216A1.908,1.908,0,0,0-118.2-69.34a1.911,1.911,0,0,0-1.909-1.909A1.911,1.911,0,0,0-122.017-69.34Zm-18.156,0a6.632,6.632,0,0,0,.278,1.9h17.412a3.023,3.023,0,0,1-.668-1.9,3.026,3.026,0,0,1,.652-1.878l-17.4-.014A6.65,6.65,0,0,0-140.172-69.342Zm-19.346,0a6.6,6.6,0,0,0,.279,1.9h13.207a12.725,12.725,0,0,1-.142-1.9,12.671,12.671,0,0,1,.14-1.886l-13.207-.009A6.621,6.621,0,0,0-159.518-69.342Zm20.075-3.023,11.857.009A6.661,6.661,0,0,0-133.517-76,6.659,6.659,0,0,0-139.443-72.365Zm-19.342-.006,11.852.01A6.661,6.661,0,0,0-152.862-76,6.661,6.661,0,0,0-158.785-72.372Zm-12.433-.008,3.817,0v-8.489h-3.817Zm69.179,4.713.557-.874a2,2,0,0,0,1.159.434c.581,0,.782-.264.782-.572s-.232-.572-1.005-.572a2.408,2.408,0,0,0-.991.154l-.093-.053.069-2.653h2.924v.967h-1.9l-.023.719a2.574,2.574,0,0,1,.348-.022c1.453,0,1.886.665,1.886,1.538,0,.812-.6,1.539-1.956,1.539A2.773,2.773,0,0,1-102.039-67.667Zm-8.8-1.817a2.175,2.175,0,0,1,2.157-2.421,2.171,2.171,0,0,1,2.158,2.421,2.17,2.17,0,0,1-2.158,2.42A2.174,2.174,0,0,1-110.84-69.484Zm1.16,0c0,.8.332,1.338,1,1.338s1-.534,1-1.338-.333-1.338-1-1.338S-109.679-70.288-109.679-69.484ZM-182-67.667l.557-.874a1.994,1.994,0,0,0,1.16.434c.58,0,.78-.264.78-.572s-.232-.572-1.005-.572a2.406,2.406,0,0,0-.99.154l-.092-.053.069-2.653h2.922v.967h-1.9l-.023.719a2.575,2.575,0,0,1,.348-.022c1.454,0,1.887.665,1.887,1.538,0,.812-.6,1.539-1.957,1.539A2.772,2.772,0,0,1-182-67.667Zm75.858.5v-.185l1.755-2.158c.256-.318.34-.456.34-.68a.622.622,0,0,0-.664-.618,1.414,1.414,0,0,0-.952.417l-.588-.9a2.518,2.518,0,0,1,1.694-.619c1.276,0,1.817.68,1.817,1.47a1.915,1.915,0,0,1-.5,1.192l-.9,1.113h1.532v.967Zm-8.77,0v-.185l1.756-2.158c.256-.318.339-.456.339-.68a.623.623,0,0,0-.665-.618,1.413,1.413,0,0,0-.95.417l-.588-.9a2.516,2.516,0,0,1,1.694-.619c1.275,0,1.817.68,1.817,1.47a1.915,1.915,0,0,1-.5,1.192l-.905,1.113h1.532v.967Zm-71.04,0v-.185l1.754-2.158c.256-.318.341-.456.341-.68a.623.623,0,0,0-.665-.618,1.413,1.413,0,0,0-.951.417l-.588-.9a2.516,2.516,0,0,1,1.694-.619c1.275,0,1.817.68,1.817,1.47a1.915,1.915,0,0,1-.5,1.192l-.9,1.113h1.532v.967Zm-3.271,0,.726-1.261a1.188,1.188,0,0,1,.218-.271v-.062a1.142,1.142,0,0,1-.232.023c-1.067,0-1.741-.548-1.741-1.492a1.684,1.684,0,0,1,1.832-1.678,1.756,1.756,0,0,1,1.949,1.725,3.031,3.031,0,0,1-.456,1.462l-.874,1.554Zm.231-3.125a.59.59,0,0,0,.634.6.583.583,0,0,0,.626-.6.587.587,0,0,0-.634-.611A.577.577,0,0,0-188.995-70.288Zm-3.139,3.125v-3.674H-193V-71.8h1.987v4.64Z" transform="translate(220.164 91.317)" fill="#0032a0" stroke="rgba(0,0,0,0)" stroke-miterlimit="10" stroke-width="1"/>
  </g>
</svg>
