<svg id="katman_1" data-name="katman 1" xmlns="http://www.w3.org/2000/svg" viewBox="0 0 1080 1080" height="100px" width="100px" transform="rotate(0) scale(1, 1)">
  <defs>
    <style>.cls-1 { fill: #000000; stroke-width: 0px; }</style>
  </defs>
  <path class="cls-1" d="M225.83,775.17c1.18-1.56,3.26-3.36,6.24-5.39l1.02-.6.65,1.15c-1.53,1.12-2.65,2.05-3.38,2.8-1.25,1.28-1.88,2.43-1.88,3.43,0,.33.06.64.17.93.12.29.27.54.48.75l.65.67c.68.68,1.17,1.25,1.47,1.73.29.48.44,1.07.44,1.77,0,.84-.31,1.6-.92,2.27-.61.68-1.51,1.01-2.7,1.01s-2.09-.46-2.87-1.4c-.77-.93-1.16-2.12-1.16-3.57,0-2.15.59-4,1.77-5.56M241.83,773.53c.7-.79,2.29-2.04,4.74-3.74l1.06-.6.65,1.15c-1.61,1.19-2.76,2.13-3.45,2.83-1.21,1.24-1.81,2.38-1.81,3.43,0,.3.04.59.12.86.08.27.25.53.49.79l.65.67c.75.77,1.26,1.37,1.52,1.79.26.42.39.97.39,1.64,0,1.07-.35,1.9-1.06,2.48-.7.58-1.56.87-2.56.87-1.18,0-2.15-.49-2.9-1.47-.75-.98-1.13-2.15-1.13-3.5,0-2.5,1.09-4.9,3.28-7.21"/>
  <path class="cls-1" d="M268.13,815.56c1.64-.14,2.76-.44,3.38-.91.96-.7,1.74-2.16,2.35-4.37l8.56-31.71c.32-1.28.53-2.19.65-2.71.11-.52.17-1.04.17-1.56,0-1.14-.36-1.93-1.09-2.36-.73-.43-2.01-.7-3.86-.82v-1.15h17.31v1.15c-1.84.26-3.11.66-3.8,1.21-.7.55-1.34,1.91-1.93,4.08l-8.56,31.71c-.3,1.12-.51,2.04-.63,2.77-.12.72-.19,1.27-.19,1.64,0,1.17.4,1.95,1.21,2.35.81.4,2,.63,3.57.7v1.15h-17.14v-1.15ZM286.58,759.4c.66-.68,1.46-1.03,2.41-1.03s1.76.34,2.44,1.03c.68.68,1.02,1.5,1.02,2.46,0,1-.34,1.84-1.02,2.53-.68.68-1.48,1.03-2.41,1.03s-1.7-.33-2.39-.99c-.69-.66-1.04-1.51-1.04-2.56,0-.95.33-1.77.98-2.46"/>
  <path class="cls-1" d="M290.92,826.38c.46-.54,1.12-.81,1.98-.81.57,0,1.07.11,1.5.33.43.22.89.54,1.37.96l.48.35c.14.12.29.2.46.26.17.06.36.09.56.09,1.12,0,2.91-1.51,5.37-4.53,2.47-3.02,3.7-5.21,3.7-6.59,0-1.3-.43-3.87-1.28-7.69-.85-3.82-1.68-7.22-2.47-10.2-1.11-4.19-2.13-7.03-3.05-8.52-.92-1.49-2.28-2.24-4.08-2.24-.14,0-.37.02-.7.05-.33.04-.89.1-1.69.19v-1.15l9.31-1.85.71-.07c.57-.07,1.66,2.56,3.28,7.87,1.46,4.78,2.36,8.26,2.71,10.44l1.38,8.35c2.39-4.11,4.14-7.27,5.26-9.46,2.19-4.32,3.28-7.35,3.28-9.08,0-.4-.07-.79-.2-1.17-.14-.38-.46-.72-.96-1l-.58-.32c-.36-.19-.79-.54-1.28-1.05-.49-.51-.73-1.2-.73-2.07,0-.73.23-1.33.68-1.82.45-.49,1.14-.74,2.05-.74,1.14,0,2.06.34,2.76,1.03.7.69,1.06,1.86,1.06,3.52,0,2.5-1.33,6.51-3.99,12.05-2.05,4.21-4.33,8.3-6.86,12.26-3.16,4.94-5.88,8.75-8.15,11.43-3.62,4.22-6.62,6.33-9.01,6.33-.93,0-1.76-.29-2.47-.87-.72-.58-1.08-1.38-1.08-2.38,0-.75.23-1.39.68-1.92"/>
  <path class="cls-1" d="M338.9,784.99c.12.08.17.18.15.3l-6.89,24.99c-.32,1.33-.48,2.12-.48,2.38,0,.35.07.65.2.91.11.28.4.42.85.42.77,0,1.79-.69,3.07-2.06.75-.82,1.67-1.98,2.76-3.5l.89.77-.34.49c-1.71,2.45-3.12,4.21-4.23,5.29-1.75,1.68-3.46,2.52-5.12,2.52-.98,0-1.79-.42-2.44-1.26-.65-.84-.97-1.83-.97-2.97,0-.68.05-1.27.14-1.77.09-.5.26-1.24.51-2.22l4.86-17.99c.07-.28.12-.54.17-.77.04-.23.07-.46.07-.7,0-.84-.3-1.36-.9-1.56-.6-.2-1.79-.3-3.56-.3v-1.15c1.87-.23,3.22-.41,4.05-.54.82-.13,1.65-.26,2.49-.4,1.08-.19,2.11-.4,3.08-.63.97-.23,1.52-.31,1.64-.23M335.68,776.22c-.66-.75-.99-1.64-.99-2.69s.33-1.98.99-2.73c.66-.75,1.46-1.12,2.39-1.12s1.74.37,2.41,1.12c.67.75,1.01,1.66,1.01,2.73s-.34,1.98-1.01,2.71c-.67.74-1.47,1.1-2.41,1.1s-1.73-.37-2.39-1.12"/>
  <path class="cls-1" d="M404.29,773.95c3.03,3.27,4.54,7.27,4.54,12.01,0,8.35-3.02,15.81-9.07,22.36-5.96,6.42-12.57,9.62-19.82,9.62-4.59,0-8.4-1.47-11.43-4.41-3.02-2.94-4.54-7.13-4.54-12.57,0-7.72,2.99-14.97,8.97-21.73,6.01-6.79,12.49-10.18,19.45-10.18,4.91,0,8.88,1.63,11.91,4.9M396.37,802.58c3.43-6.93,5.15-13.36,5.15-19.28,0-3.66-.78-6.53-2.32-8.59-1.55-2.06-3.88-3.1-6.99-3.1-6,0-11.12,4.12-15.35,12.35-3.57,6.93-5.36,13.61-5.36,20.06,0,3.78.81,6.64,2.42,8.57,1.61,1.94,3.87,2.91,6.76,2.91,6.21,0,11.44-4.31,15.69-12.91"/>
  <path class="cls-1" d="M423.6,774.26c.09-.3.15-.61.17-.91.02-.3.04-.55.04-.73,0-.79-.31-1.28-.93-1.45-.62-.17-1.86-.25-3.71-.23v-1.15c1.03-.14,2.21-.3,3.55-.49,1.34-.19,2.21-.31,2.62-.38,1.28-.23,2.83-.58,4.66-1.05.16,0,.32.12.48.35l-11.36,42.07c-.25,1-.4,1.61-.44,1.82-.04.21-.07.42-.07.63,0,.44.08.82.24,1.14.16.31.46.47.89.47.82,0,1.89-.75,3.21-2.24,1.32-1.49,2.43-2.94,3.34-4.34l.92.67c-1.96,2.96-3.49,5.02-4.58,6.16-1.89,1.94-3.8,2.91-5.71,2.91-.82,0-1.55-.21-2.19-.63-.98-.63-1.47-1.7-1.47-3.22,0-.58.09-1.37.27-2.35.12-.58.28-1.26.48-2.03l9.59-35Z"/>
  <path class="cls-1" d="M458.51,785.81c1.1.77,1.64,2.04,1.64,3.81,0,.79-.19,1.89-.56,3.3-.38,1.41-1.05,3.68-2.03,6.81,2.53-3.96,4.71-6.98,6.54-9.05,3.31-3.75,6.23-5.63,8.76-5.63,1.07,0,2.05.37,2.94,1.12.89.74,1.33,1.94,1.33,3.59,0,.51-.22,1.76-.65,3.73l-5.37,19.1c-.09.3-.06.61.1.93.16.32.46.47.89.47.41,0,.77-.1,1.07-.31.31-.21.7-.56,1.18-1.05.45-.47.82-.88,1.11-1.23.29-.35,1.1-1.37,2.44-3.05l1.06.84-.34.49c-1.64,2.38-3.29,4.28-4.95,5.69-1.66,1.41-3.3,2.12-4.92,2.12-.73,0-1.34-.19-1.84-.56-.77-.61-1.16-1.62-1.16-3.05,0-.35.03-.72.09-1.12.06-.4.14-.84.26-1.33l5.3-19.63c.07-.28.12-.51.15-.7.03-.19.05-.37.05-.56,0-.56-.15-.99-.43-1.3-.29-.31-.65-.46-1.1-.46-1.56,0-3.37,1.18-5.44,3.54-2.07,2.36-3.87,4.75-5.4,7.18-1.39,2.48-2.38,4.55-2.94,6.22-.57,1.67-1.61,5.33-3.12,10.99h-5.3l6.83-24.91c.05-.21.09-.41.12-.61.04-.2.05-.4.05-.61,0-.56-.12-1-.36-1.31-.24-.31-.64-.47-1.2-.47-1.47,0-3.28,1.23-5.43,3.68-2.15,2.45-3.92,4.74-5.29,6.87-1.35,2.08-2.64,4.85-3.87,8.31-.72,2.1-1.68,5.13-2.88,9.07h-5.24l6.57-24.88c.07-.26.12-.51.17-.74.04-.24.07-.48.07-.74,0-.92-.31-1.47-.92-1.66-.61-.19-1.8-.25-3.55-.18v-1.15c2.29-.37,5.99-1.14,11.11-2.31l.27.24-3.87,14.33c2.56-3.79,4.99-6.96,7.28-9.51,3.14-3.38,5.91-5.07,8.31-5.07.92,0,1.74.26,2.46.77"/>
  <path class="cls-1" d="M505.88,786.41c.53.51.94,1.19,1.24,2.03l.17.49.77-2.64c.09-.3.17-.5.24-.61s.23-.17.49-.19l3.93-.45c.21,0,.33.04.37.12.03.08.03.23-.02.44-.1.3-.17.54-.22.72-.05.17-.12.43-.22.75l-3.38,12.52c-.73,2.73-1.36,5.08-1.87,7.07-.84,3.58-1.26,5.63-1.26,6.14,0,.33.09.57.25.72.17.15.38.23.63.23.2,0,.43-.07.68-.21.25-.14.56-.35.92-.63l.61-.49c.19-.16.41-.36.65-.58.24-.22.52-.49.86-.82l2.23-2.24.82.74c-2.43,3.1-4.38,5.21-5.85,6.32-1.47,1.11-2.87,1.66-4.21,1.66-.86,0-1.53-.3-2-.91-.47-.6-.7-1.36-.7-2.27,0-.84.15-2.04.46-3.61.31-1.57.61-2.89.9-3.96-.41.7-1.1,1.72-2.06,3.07-.97,1.34-2.15,2.64-3.56,3.91-1.66,1.52-3.25,2.59-4.77,3.22-1.18.42-2.32.63-3.41.63-1.84,0-3.51-.78-5.01-2.33-1.5-1.55-2.25-3.76-2.25-6.6,0-4.9,2.16-10.02,6.48-15.35,4.46-5.53,9.08-8.3,13.86-8.3,1.82,0,3.22.48,4.21,1.44M504.77,787.74c-.76-.79-1.68-1.19-2.76-1.19-3.75,0-7.23,2.92-10.45,8.76-2.83,5.14-4.24,9.57-4.24,13.28,0,1.87.39,3.23,1.18,4.08.78.85,1.75,1.28,2.91,1.28,3.43,0,6.73-2.84,9.91-8.51,3.06-5.16,4.59-9.82,4.59-13.98,0-1.68-.38-2.92-1.14-3.71"/>
  <path class="cls-1" d="M516.17,816.72l11.46-42.45c.05-.21.09-.41.12-.61.03-.2.05-.4.05-.61,0-1.03-.29-1.65-.87-1.85-.58-.21-1.82-.29-3.73-.25v-1.15c1.31-.16,2.57-.33,3.78-.51,1.21-.17,2.15-.32,2.82-.44.21-.05,1-.22,2.37-.52,1.38-.3,2.13-.46,2.27-.46l.07.35-9.23,32.82c5.16-4.14,8.65-7.05,10.47-8.72,1.82-1.67,2.73-2.92,2.73-3.77,0-.56-.25-.91-.73-1.05-.49-.14-1.54-.25-3.16-.32v-1.15h12.78v1.15c-1.68.09-3.24.66-4.67,1.7-1.43,1.04-4.95,4.03-10.55,9,2.99,7.55,4.86,12.1,5.6,13.64.75,1.54,1.5,2.3,2.27,2.3.66,0,1.35-.49,2.08-1.47.48-.63,1.18-1.77,2.08-3.43l1.06.73c-1.42,2.74-2.69,4.74-3.79,6.01-1.1,1.26-2.38,1.9-3.82,1.9-.93,0-1.78-.39-2.54-1.16-.76-.77-1.77-2.58-3.04-5.41-.51-1.1-1.11-2.48-1.79-4.14-.68-1.67-1.39-3.54-2.12-5.61l-3.6,2.69-3.14,12.8h-5.24Z"/>
  <path class="cls-1" d="M563.16,815.74l33.54-43.15h-11.94c-4.75,0-8.14.69-10.17,2.06-1.34.91-2.83,2.94-4.47,6.09l-1.3-.35,3.24-10.43h33.98v.98l-33.81,43.22h11.22c5.78,0,9.69-.69,11.74-2.06,2.05-1.38,3.96-3.92,5.73-7.63l1.4.25-3.85,12h-35.32v-.98Z"/>
  <path class="cls-1" d="M632.83,788.11c1.57,2.09,2.35,4.56,2.35,7.4,0,4.95-2.13,9.8-6.38,14.56-4.39,4.95-9.07,7.42-14.05,7.42-3.14,0-5.65-.93-7.54-2.8-1.89-1.87-2.83-4.49-2.83-7.87,0-5.11,2.12-10,6.35-14.66,4.32-4.78,8.99-7.18,14.02-7.18,3.82,0,6.52,1.05,8.09,3.13M611.69,814.01c.94,1.27,2.32,1.91,4.15,1.91,3.71,0,6.99-2.87,9.86-8.61,2.43-4.92,3.65-9.45,3.65-13.58,0-1.75-.21-3.16-.62-4.23-.8-2.03-2.25-3.04-4.37-3.04-3.48,0-6.74,2.67-9.79,8.01-2.87,4.99-4.3,9.91-4.3,14.74,0,1.94.47,3.54,1.42,4.81"/>
  <path class="cls-1" d="M652.15,785.06c.08.13.12.28.12.44-.02.24-.04.42-.06.53l-3.48,13.65.79-1.62c1.63-3.29,3.55-6.29,5.75-9.01,2.19-2.72,4.28-4.08,6.26-4.08,1.07,0,1.89.36,2.47,1.08.58.72.87,1.55.87,2.48,0,1.05-.29,1.92-.87,2.61-.58.69-1.38,1.03-2.4,1.03-.7,0-1.24-.14-1.6-.42-.36-.28-.65-.61-.85-.98l-.41-.77c-.09-.14-.2-.25-.32-.33-.13-.08-.28-.12-.46-.12-.89,0-2.17,1.27-3.84,3.81-1.67,2.54-3.17,5.3-4.49,8.26-.8,1.8-1.69,4.18-2.67,7.14-.62,1.87-1.44,4.52-2.48,7.94h-5.24l5.69-21.07c.32-1.21.57-2.3.77-3.25.19-.96.29-1.74.29-2.35,0-.7-.17-1.23-.51-1.61-.34-.37-.93-.56-1.77-.56-.27,0-.61.02-1.02.07-.41.05-.9.11-1.47.18v-1.15l1.37-.28c1.78-.37,3.72-.77,5.82-1.19,2.11-.42,3.21-.63,3.33-.63.2,0,.35.06.43.19"/>
  <path class="cls-1" d="M673.15,791.45c.05-.23.09-.45.12-.65.03-.2.05-.4.05-.61,0-1-.29-1.62-.87-1.84-.58-.22-1.66-.33-3.26-.33v-.98l5.08-1.02,5.49-1.05c.12-.02.22.03.31.17.09.14.13.28.1.41l-.1.58-6.63,23.65c-.16.58-.27,1.04-.34,1.37-.07.33-.1.56-.1.7,0,.54.15.96.44,1.26.3.3.69.46,1.17.46,1.36,0,3.06-1.23,5.09-3.68,2.04-2.45,3.85-5,5.44-7.64,1.43-2.36,2.74-4.99,3.94-7.88.74-1.8,1.79-4.66,3.18-8.59h5.15l-6.71,24.84c-.11.47-.21.9-.3,1.29-.09.4-.13.72-.13.98,0,.3.07.57.21.79.14.22.37.33.7.33s.68-.13,1.03-.4c.36-.27.8-.68,1.33-1.24.25-.26.69-.81,1.34-1.65.4-.51,1.01-1.29,1.84-2.34l.97.66c-1.04,1.77-2.12,3.3-3.25,4.58-2.23,2.57-4.31,3.85-6.22,3.85-.99,0-1.81-.28-2.44-.84-.63-.56-.95-1.43-.95-2.61,0-.6.06-1.27.17-1.99.12-.72.3-1.53.55-2.44.42-1.64.97-3.68,1.62-6.14l.89-3.29h-.25c-3.17,5.45-5.67,9.31-7.48,11.56-3.15,3.88-6.13,5.82-8.93,5.82-.76,0-1.45-.16-2.07-.49-1.19-.65-1.79-1.82-1.79-3.5,0-.49.02-.89.07-1.19.05-.31.12-.73.24-1.26l5.31-19.67Z"/>
  <path class="cls-1" d="M700.86,816.72l5.84-21.63c.5-1.83.79-2.94.87-3.33.08-.39.12-.8.12-1.25,0-.68-.19-1.21-.56-1.6-.38-.39-1.11-.58-2.2-.58-.27,0-.54.02-.8.05-.26.04-.55.08-.87.12v-1.15c1.47-.23,2.51-.41,3.14-.52.62-.12,1.29-.26,2.01-.42l6.07-1.37c.14.09.22.2.27.32l-4.52,15.05c2.8-4.36,5.13-7.61,7.01-9.73,3.3-3.76,6.25-5.64,8.86-5.64,1.01,0,1.88.2,2.61.6,1.39.77,2.09,2.16,2.09,4.16,0,.56-.06,1.14-.17,1.75-.11.61-.26,1.26-.44,1.96l-4.49,16.76c-.09.35-.19.78-.31,1.28-.11.5-.17.86-.17,1.07,0,.35.08.67.24.94.16.28.41.42.76.42.57,0,1.22-.36,1.96-1.07.74-.71,1.95-2.23,3.63-4.57l.99.91c-1.83,2.59-3.28,4.41-4.35,5.46-1.83,1.85-3.58,2.77-5.25,2.77-.76,0-1.49-.26-2.19-.79-.7-.53-1.06-1.48-1.06-2.85,0-.4.03-.82.09-1.26.06-.44.13-.83.22-1.15l4.35-17.01c.23-.93.38-1.7.46-2.29.08-.6.12-1.02.12-1.28,0-.56-.13-1.04-.39-1.45-.26-.41-.73-.61-1.39-.61-1.73,0-3.9,1.58-6.53,4.76-1.55,1.89-3.11,4.14-4.7,6.75-1.19,2.03-2.12,4-2.8,5.93-.69,1.92-1.77,5.42-3.26,10.5h-5.24Z"/>
  <path class="cls-1" d="M759.58,786.3c.43.51.78,1.39,1.03,2.62l4.01-14.35c.11-.4.19-.75.22-1.07.04-.31.05-.59.05-.82,0-.91-.17-1.48-.49-1.71s-.8-.35-1.42-.35c-.39,0-.75.01-1.08.04-.33.02-.77.06-1.31.1v-1.15c2.58-.35,6.16-.96,10.73-1.82l.31.35-.07.38-6.73,25.15-4.58,16.64c-.09.38-.17.72-.22,1.04-.06.32-.09.61-.09.86,0,.64.15,1.05.46,1.24.3.19.57.28.8.28.67,0,1.61-.6,2.83-1.79.71-.73,1.69-1.85,2.93-3.38l.78.77-.48.74c-.85,1.29-1.93,2.6-3.26,3.93-2.36,2.36-4.47,3.55-6.35,3.55-.62,0-1.18-.14-1.68-.42-.94-.56-1.41-1.56-1.41-3.01,0-.49.07-1.27.21-2.34.14-1.07.34-2.25.62-3.53-1.73,2.7-3.63,4.92-5.69,6.65-2.06,1.73-4.31,2.59-6.74,2.59-1.98,0-3.71-.72-5.19-2.17-1.48-1.45-2.22-3.67-2.22-6.68,0-5.08,2.29-10.3,6.86-15.66,4.55-5.34,8.99-8,13.32-8,1.81,0,3.09.44,3.84,1.33M742.58,812.29c.64,1.06,1.72,1.59,3.24,1.59,3.25,0,6.38-2.68,9.39-8.04,2.89-5.03,4.34-9.8,4.34-14.3,0-1.42-.23-2.6-.69-3.53-.46-.93-1.39-1.4-2.78-1.4-3.48,0-6.85,2.87-10.1,8.6-2.91,5.13-4.36,9.58-4.36,13.35,0,1.42.32,2.66.96,3.72"/>
  <path class="cls-1" d="M795.08,786.41c.53.51.94,1.19,1.24,2.03l.17.49.77-2.64c.09-.3.17-.5.24-.61.07-.1.23-.17.49-.19l3.93-.45c.21,0,.33.04.36.12.04.08.03.23-.01.44-.1.3-.17.54-.22.72-.05.17-.12.43-.22.75l-3.38,12.52c-.73,2.73-1.36,5.08-1.87,7.07-.84,3.58-1.26,5.63-1.26,6.14,0,.33.09.57.26.72.17.15.38.23.63.23.2,0,.43-.07.68-.21.25-.14.55-.35.91-.63l.61-.49c.19-.16.41-.36.65-.58.24-.22.53-.49.86-.82l2.23-2.24.82.74c-2.43,3.1-4.38,5.21-5.85,6.32-1.47,1.11-2.87,1.66-4.21,1.66-.86,0-1.53-.3-2-.91-.47-.6-.7-1.36-.7-2.27,0-.84.15-2.04.46-3.61.31-1.57.61-2.89.9-3.96-.41.7-1.1,1.72-2.06,3.07-.97,1.34-2.15,2.64-3.56,3.91-1.66,1.52-3.25,2.59-4.77,3.22-1.18.42-2.32.63-3.41.63-1.84,0-3.51-.78-5.01-2.33-1.5-1.55-2.25-3.76-2.25-6.6,0-4.9,2.16-10.02,6.48-15.35,4.46-5.53,9.08-8.3,13.87-8.3,1.82,0,3.22.48,4.21,1.44M793.97,787.74c-.76-.79-1.68-1.19-2.76-1.19-3.75,0-7.23,2.92-10.45,8.76-2.83,5.14-4.24,9.57-4.24,13.28,0,1.87.39,3.23,1.17,4.08.78.85,1.75,1.28,2.91,1.28,3.42,0,6.73-2.84,9.91-8.51,3.06-5.16,4.59-9.82,4.59-13.98,0-1.68-.38-2.92-1.14-3.71"/>
  <path class="cls-1" d="M834.74,770.21c.63-.68,1.52-1.02,2.68-1.02s2.09.47,2.87,1.42c.77.95,1.16,2.16,1.16,3.66,0,1.89-.7,3.8-2.1,5.72-1.4,1.92-3.37,3.63-5.92,5.13l-1.02.6-.65-1.15c1.5-1.12,2.59-2.01,3.28-2.66,1.32-1.33,1.98-2.53,1.98-3.6,0-.3-.06-.6-.17-.88-.11-.28-.27-.52-.48-.73l-.65-.66c-.68-.7-1.17-1.3-1.47-1.79-.3-.49-.44-1.12-.44-1.89s.31-1.46.94-2.14M854.71,770.5c.82.87,1.23,2.15,1.23,3.83,0,2.26-.85,4.36-2.56,6.28-1.71,1.92-3.52,3.42-5.42,4.5l-1.06.6-.65-1.15c1.36-.98,2.42-1.84,3.17-2.59,1.38-1.38,2.08-2.6,2.08-3.68,0-.3-.06-.6-.17-.88-.12-.28-.28-.52-.48-.73l-.65-.66c-.64-.65-1.12-1.23-1.42-1.71-.31-.49-.46-1.07-.46-1.75,0-1,.34-1.81,1.01-2.43.67-.62,1.56-.93,2.65-.93,1.01,0,1.92.44,2.74,1.31"/>
  <path class="cls-1" d="M156.87,720.34c-1.75-1.41-3.33-3.71-4.73-6.86l-39.17-98.37h-7.66c0,1.68-.28,3.03-.84,4.84-.56,1.8-1.13,3.49-1.74,5.12-.79,2.08-1.69,4.28-2.7,6.58l-33.2,82.06c-1.41,3.04-2.93,5.29-4.62,6.7-1.69,1.41-3.26,2.19-4.79,2.19h-4.78v3.94h36.58v-3.94h-4.96c-.78,0-1.46-.51-2.02-1.41-.56-.9-.84-2.19-.84-3.88,0-.84.11-1.8.28-2.81,1.52-4.05,3.04-8.22,4.73-12.55,1.63-4.33,3.26-8.61,4.84-12.55h33.43c1.41,3.94,2.87,8.22,4.5,12.55,1.57,4.34,3.15,8.5,4.61,12.55.23.84.28,1.74.28,2.81,0,1.69-.28,3.1-.84,3.88-.56.84-1.18,1.41-1.86,1.41h-5v3.94h39.96v-3.94h-4.56c-1.52,0-3.15-.84-4.89-2.25M93.84,682.08l14.35-38.44c1.29,3.66,2.47,7.04,3.6,10.19,1.07,3.15,2.19,6.19,3.37,9.23,1.13,3.04,2.25,6.08,3.38,9.12,1.07,3.09,2.31,6.52,3.6,9.9h-28.31Z"/>
  <path class="cls-1" d="M252.54,633.12h-2.36v3.94h6.08c1.07,0,2.08.56,2.99,1.8.9,1.24,1.63,2.7,1.63,4.44v56.28l-70.12-68.72h-7.31l.9,6.3c.23,1.86.51,4,.73,6.52.22,2.48.39,4.9.39,7.32v65.06c-.56,1.86-.73,3.38-1.63,4.67-.9,1.29-2.09,1.86-3.27,1.86h-5.79v3.94h34.33v-3.94h-6.08c-1.12,0-2.08-.56-2.98-1.86-.9-1.29-1.63-2.81-1.63-4.67v-56.78l70.29,69.5h7.04c-.22-1.13-.34-2.14-.45-3.27-.11-1.07-.22-2.14-.28-3.32-.22-1.97-.28-4.17-.45-6.64-.17-2.42-.17-4.84-.17-7.26v-64.72c0-1.74.68-3.37,1.58-4.61.9-1.24,1.86-1.97,3.04-1.97h6.08v-3.94h-32.53v.06Z"/>
  <path class="cls-1" d="M381.58,720.63c-1.4-1.29-2.76-3.26-4.05-6.08l-36.19-83.68h-7.66c-.11,1.13-.39,2.98-.89,4.84-.51,1.81-1.13,3.54-1.8,5.18-.68,1.8-1.58,3.66-2.7,6.08l-30.17,67.19h.17c-1.41,3.38-2.82,5.18-4.33,6.42-1.52,1.24-2.82,2.03-4.05,2.03h-4.84v3.94h34.89v-3.94h-4.61c-.51,0-.96-.39-1.41-1.24-.45-.84-.68-2.03-.68-3.6,0-1.69.12-2.54.28-2.82l7.76-18.79h30.96c1.29,2.81,2.59,6.19,3.82,9.57,1.24,3.32,2.53,6.47,3.83,9.62.23.62.28,1.41.28,2.48,0,1.58-.22,2.76-.73,3.6-.5.84-1.01,1.24-1.52,1.24h-4.78v3.94h37.14v-3.94h-4.84c-1.18-.06-2.48-.73-3.88-2.03M324.18,688.83l12.89-31.57,12.44,31.57h-25.33Z"/>
  <path class="cls-1" d="M473.09,679.6l-28.25-27.97c-1.97-1.85-3.32-3.99-3.94-6.41-.68-2.42-.95-4.62-.95-6.7,0-2.19.33-4.22,1.06-6.19.68-1.91,1.69-3.65,2.93-5.17,1.24-1.52,2.76-2.7,4.56-3.6,1.8-.9,3.77-1.35,5.97-1.35,1.8,0,3.82.17,6.07.56,2.25.39,4.33,1.13,6.36,2.25,1.97,1.13,3.66,2.76,5.01,4.84,1.35,2.08,2.03,4.78,2.03,8.1l1.97-.17v-20.03l-8.67-1.24c-1.97-.51-4.16-.9-6.53-1.18-2.36-.28-4.62-.39-6.81-.39-4.67,0-8.84.79-12.5,2.36-3.66,1.58-6.69,3.6-9.17,6.19-2.48,2.53-4.39,5.46-5.63,8.66-1.24,3.27-1.86,6.53-1.86,9.85,0,3.04.73,6.31,2.2,9.79,1.46,3.49,3.77,6.92,6.98,10.24l27.86,27.35c3.09,2.82,4.61,7.21,4.61,13.17,0,2.93-.45,5.52-1.35,7.82-.9,2.31-2.08,4.28-3.6,5.97-1.52,1.69-3.26,3.1-5.24,4-1.97.96-4.1,1.69-6.3,1.69h-1.07c-2.42,0-4.9-.56-7.54-1.52-2.65-.96-5.12-2.36-7.43-4.22-2.31-1.8-4.05-4.05-5.52-6.59-1.52-2.53-2.08-5.4-2.08-8.55v-1.24c0-.39-.11-.9,0-1.41,0-.23-.06-.51,0-.84.06-.34,0-.4,0-.96h-1.52c-.9,2.81-1.58,5.91-2.03,8.89-.45,2.98-.68,5.68-.68,8.04s.17,4.11.45,5.46c1.58,1.86,3.6,3.43,5.97,4.67,2.42,1.24,4.9,2.19,7.54,2.98,2.64.79,5.23,1.35,7.88,1.69,2.59.34,4.9.56,6.87.56,4.67,0,8.95-.73,12.72-2.2,3.77-1.46,7.04-3.49,9.74-6.08,2.7-2.59,4.78-5.74,6.19-9.46,1.46-3.71,2.19-7.71,2.19-12.1,0-3.04-.56-6.19-1.74-9.51-1.07-3.37-3.32-6.75-6.75-10.07"/>
  <path class="cls-1" d="M492.17,637.06h5.18c1.69,0,3.26.68,4.44,2.03,1.18,1.35,1.63,2.98,2.2,4.84v71.75c-.57,1.86-1.02,3.49-2.2,4.84-1.18,1.35-2.75,2.03-4.44,2.03h-5.18v3.94h39.96v-3.94h-5.63c-1.69,0-3.1-.68-4.28-2.03-1.18-1.35-1.91-2.98-1.91-4.84v-71.87c0-1.74.9-3.37,2.14-4.72,1.23-1.35,2.59-2.03,4.05-2.03h5.63v-3.94h-39.96v3.94Z"/>
  <path class="cls-1" d="M614.29,684.89h4.17c2.31,0,3.43,1.52,3.43,4.56l.45,19.81c-4.5,4.39-9.17,7.6-13.96,9.57-4.84,1.97-9.96,2.98-15.3,2.98-5.07,0-9.68-.96-13.84-2.93-4.17-1.91-7.65-4.73-10.64-8.39-2.92-3.65-5.23-8.1-6.81-13.28-1.58-5.18-2.42-11.03-2.42-17.5s1.07-12.32,3.21-17.56c2.14-5.23,5-9.62,8.66-13.28,3.66-3.6,7.82-6.36,12.49-8.33,4.67-1.91,9.57-2.93,14.64-2.93,9.28,0,16.55,2.2,21.84,6.36,5.29,4.17,8.94,10.97,11.09,19.98h2.81l-4.62-23.58c-5.17-3.32-10.69-5.8-16.54-7.32-5.85-1.52-12.38-2.31-19.64-2.31-7.65,0-14.69,1.13-20.99,3.33-6.36,2.25-11.76,5.45-16.21,9.68-4.5,4.22-7.94,9.4-10.41,15.48-2.42,6.08-3.65,12.95-3.65,20.54s1.23,14.4,3.65,20.48c2.42,6.02,5.91,11.2,10.41,15.42,4.5,4.22,9.91,7.49,16.21,9.79,6.31,2.31,13.34,3.43,20.99,3.43,5.46,0,10.58-.62,15.25-1.86,4.67-1.24,8.95-2.87,12.78-4.9,3.83-2.03,7.21-4.28,10.02-6.81,2.81-2.48,5.18-5,6.98-7.48l-.28-18.29c0-3.15,1.01-4.73,2.98-4.73h4.16v-3.38h-30.95v3.43h.06Z"/>
  <path class="cls-1" d="M740.97,644.37c-4.79-4.33-10.36-7.71-16.77-10.07-6.36-2.42-13.23-3.6-20.48-3.6s-14.12,1.18-20.55,3.6c-6.41,2.42-12.04,5.74-16.82,10.07-4.79,4.33-8.56,9.51-11.31,15.48-2.76,6.02-4.11,12.66-4.11,19.92s1.35,13.95,4.11,19.92c2.76,6.02,6.52,11.15,11.31,15.48,4.78,4.33,10.41,7.71,16.82,10.07,6.42,2.42,13.29,3.6,20.55,3.6s14.12-1.18,20.48-3.6c6.36-2.42,11.98-5.74,16.77-10.07,4.78-4.33,8.55-9.45,11.31-15.48,2.76-5.97,4.11-12.66,4.11-19.92s-1.35-13.96-4.11-19.92c-2.76-6.02-6.52-11.15-11.31-15.48M735.73,696.88c-1.8,5.18-4.22,9.57-7.32,13.22-3.09,3.66-6.75,6.47-10.97,8.5-4.22,2.03-8.78,3.04-13.67,3.04s-9.62-1.01-13.85-3.04c-4.22-2.03-7.87-4.9-10.97-8.5-3.1-3.65-5.52-8.05-7.32-13.22-1.8-5.18-2.7-10.86-2.7-17.11s.9-11.93,2.7-17.11c1.8-5.18,4.22-9.57,7.32-13.23,3.1-3.65,6.75-6.47,10.97-8.49,4.22-2.03,8.84-3.04,13.85-3.04s9.45,1.01,13.67,3.04c4.22,2.03,7.88,4.9,10.97,8.49,3.1,3.66,5.52,8.05,7.32,13.23,1.8,5.18,2.7,10.86,2.7,17.11s-.9,11.93-2.7,17.11"/>
  <path class="cls-1" d="M842.04,719.62c-2.42-2.03-5.01-4.67-7.76-7.99-1.52-1.74-2.98-3.6-4.39-5.46-1.46-1.85-2.76-3.65-3.94-5.29l-4.05-5.8c-1.13-1.46-2.42-3.15-4.05-5.01-1.58-1.85-3.32-3.49-5.23-5.17h-.9c3.26-.56,6.3-1.91,8.95-3.6,2.71-1.69,5.01-3.66,7.04-5.91,1.97-2.31,3.55-4.84,4.62-7.6,1.07-2.76,1.63-5.68,1.63-8.83,0-8.11-2.98-14.41-8.95-18.91-5.97-4.5-14.01-6.7-24.09-6.92l-37.54-.06h-2.2v3.94h5.35c1.41,0,2.53.62,3.38,1.91.84,1.24,1.41,2.81,1.41,4.73v72.03c0,1.86-.56,3.55-1.41,4.84-.84,1.29-1.97,2.03-3.38,2.03h-5.35v3.94h36.58v-3.94h-5.52c-1.41,0-2.42-.73-3.26-2.14-.84-1.35-1.35-3.04-1.35-4.95v-33.15c3.38.34,6.02,1.3,7.71,2.99.79.62,1.64,1.52,2.65,2.76,1.01,1.18,2.03,2.47,3.1,3.82l6.58,9.68c.79,1.07,1.52,2.14,2.25,3.38.67,1.18,1.46,2.3,2.25,3.37.51.85,1.07,1.69,1.74,2.59.67.9,1.24,1.58,1.75,2.14,1.18,1.46,2.59,2.98,4.11,4.62,1.52,1.63,3.43,3.09,5.68,4.45,2.25,1.35,4.95,2.36,8.16,3.21,3.21.89,7.09,1.18,11.65,1.18h7.71v-3.94h-2.03c-3.54.06-6.47-.9-8.89-2.93M807.15,676.73c-1.74.79-3.49,1.18-5.18,1.29-1.68.11-3.26.11-4.61.11h-9.74v-37.71h9.96c.85,0,1.86-.06,2.82.06,4.78.34,8.61,1.86,11.42,4.78,2.81,2.93,4.33,6.92,4.39,11.99.11.11.16.73.16,1.86,0,2.7-.28,5-.9,6.86-.91,3.15-2.08,5.52-3.6,7.09-1.41,1.69-2.98,2.87-4.73,3.66"/>
  <path class="cls-1" d="M903.44,720.57c-.96-1.35-1.58-2.98-1.58-4.84v-75.86h28.14c1.07,0,2.03.96,2.81,2.14.73,1.18,1.18,2.7,1.18,4.45v3.54h2.81v-20.26h-2.7c-.79,0-1.86.56-3.21.96-1.34.39-2.81.68-4.39.95-1.58.34-3.21.46-4.78.68-1.58.23-3.04.23-4.33.23h-47.39c-1.3,0-2.76,0-4.34-.23-1.58-.22-3.21-.45-4.78-.73-1.58-.34-3.04-.56-4.39-.9-1.35-.34-2.42-.91-3.2-.91h-3.04v20.27h3.37v-3.55c0-1.74.23-3.26.9-4.45.68-1.18,1.46-2.14,2.65-2.14h28.53v75.69c-.56,1.97-.79,3.66-1.69,5.01-.9,1.35-2.08,2.03-3.49,2.03h-5.52v3.94h37.14v-3.94h-5.01c-1.58-.06-2.76-.73-3.71-2.08"/>
  <path class="cls-1" d="M1022.85,722.6c-1.18,0-2.48-.68-3.88-1.97-1.41-1.29-2.76-3.26-4.05-6.08l-36.19-83.68h-7.66c-.11,1.13-.39,2.98-.9,4.84-.51,1.81-1.13,3.54-1.8,5.18-.68,1.8-1.58,3.66-2.7,6.08l-30.22,67.19h.17c-1.4,3.38-2.81,5.18-4.33,6.42-1.52,1.24-2.82,2.03-4.05,2.03h-4.61v3.94h34.33v-3.94h-4.28c-.51,0-.96-.39-1.41-1.24-.45-.84-.68-2.03-.68-3.6,0-1.69.11-2.54.28-2.82l7.82-18.79h30.95c1.29,2.81,2.59,6.19,3.83,9.57,1.24,3.32,2.53,6.47,3.83,9.62.22.62.28,1.41.28,2.48,0,1.58-.22,2.76-.73,3.6-.51.84-1.01,1.24-1.52,1.24h-4.56v3.94h36.58v-3.94h-4.5v-.06ZM961.51,688.83l12.89-31.57,12.43,31.57h-25.33Z"/>
  <path class="cls-1" d="M512.99,611.34c3.64,0,6.59,2.95,6.59,6.59s-2.95,6.59-6.59,6.59-6.59-2.95-6.59-6.59,2.95-6.59,6.59-6.59"/>
  <path class="cls-1" d="M604.49,439.86l-20.32,39.62c-.11,0-.17.34-.28.51l-1.91,3.6-2.02,4.11c-2.82,5.85-5.91,12.1-9.01,18.52-19.53,40.35-33.6,45.02-33.6,45.02,41.82,19.64,60.83-24.2,60.83-24.2l4.9-9.46-.06.11,19.75-38.66c.11-.23.17-.39.28-.62,2.81-5.69,5.69-11.59,8.67-17.73,19.53-40.35,33.59-45.02,33.59-45.02-41.76-19.69-60.83,24.2-60.83,24.2"/>
  <path class="cls-1" d="M575.12,377.34l-23.64,45.97v-.05l-5.01,9.51s-7.54,14.46-18.35,35.96l-1.13,2.31c-5.18,10.13-10.97,22-17.11,34.61-19.53,40.35-33.59,45.13-33.59,45.13,41.81,19.64,60.83-24.32,60.83-24.32l21.1-41.08,7.54-14.52s7.71-14.63,18.63-36.47l.45-.84.39-.79c5.18-10.13,10.98-22.06,17.05-34.61,19.53-40.35,33.6-45.02,33.6-45.02-41.7-19.64-60.78,24.2-60.78,24.2"/>
  <path class="cls-1" d="M503.98,277.68l-28.53,55.49h-.06s-7.2,14.07-17.61,34.9h-.06l-4.39,8.78-.73,1.13-.06.11-3.32,6.3s-7.71,14.52-18.63,36.36l-.45.73-.34.62-6.13,11.93c-1.07,2.03-8.27,15.7-18.18,35.51l-1.12,2.08c-5.18,10.13-10.98,22.12-17.11,34.73-19.47,40.35-33.6,45.19-33.6,45.19,41.81,19.64,60.83-24.25,60.83-24.25l21.95-42.77,6.59-12.89,5.74-10.75c2.25-4.67,5.46-10.75,9.06-17.84l2.93-5.74,3.83-7.76,4.67-8.56s7.71-14.63,18.63-36.46l.46-.9.39-.85c.44-.56.84-1.58,1.29-2.42l4.62-8.84h.11s7.54-14.46,18.35-35.96l1.13-2.31c5.18-10.13,10.98-21.95,17.11-34.55,19.53-40.35,33.6-45.13,33.6-45.13-41.93-19.7-60.95,24.14-60.95,24.14"/>
  <path class="cls-1" d="M539.55,328.15l-28.53,55.66h-.06s-7.71,14.52-18.63,36.41l-.45.68-.39.62c-.33.56-.68,1.41-1.01,2.08l-1.8,3.49-4.27,8.11c-2.42,4.67-8.84,16.99-17.28,33.76l-1.13,2.14c-5.18,10.69-10.98,22.17-17.11,34.78-19.53,40.35-33.59,45.19-33.59,45.19,41.81,19.64,60.83-24.36,60.83-24.36l28.53-55.66h.06s7.2-13.56,17.56-34.22h-.06l.73-1.41c.11-.28.28-.56.39-.79l.06-.11,1.52-2.98c.17-.34.34-.62.51-.96l.51-1.01,3.09-5.97,2.82-5.46c2.82-5.4,8.89-17.11,16.6-32.53l.33-.62.84-1.63.57-1.13c5.01-9.9,10.63-21.33,16.49-33.43,19.53-40.35,33.6-45.14,33.6-45.14-41.7-19.53-60.72,24.48-60.72,24.48"/>
  <path class="cls-1" d="M634.77,496.53l-4.28,9.4s-.06,0-.11.06c-.17.44-.39.79-.56,1.18l-4,8.66c-2.59,5.35-5.12,9.9-7.48,13.79-3.83,6.59-11.59,18.52-18.57,21.5,42.32,18.91,58.92-24.31,58.92-24.31l2.76-5.91,1.91-4.22,1.41-3.21,3.26-7.04c14.97-30.39,26.28-34.16,26.28-34.16-42.77-19.58-59.54,24.26-59.54,24.26"/>
</svg>