<svg width="98" height="50" viewBox="0 0 98 50" fill="none" xmlns="http://www.w3.org/2000/svg">
<g clip-path="url(#clip0_272_176)">
<path d="M65.109 3.22497C66.1579 2.16264 67.8437 2.16264 68.8926 3.22497C69.9415 4.2873 69.9415 5.99462 68.8926 7.05695C67.8437 8.11928 66.1579 8.11928 65.109 7.05695C64.06 6.03256 64.06 4.2873 65.109 3.22497ZM64.8467 26.1789V11.1166H69.1548V30.542C66.7573 30.542 64.8467 28.6071 64.8467 26.1789Z" fill="#FF4646"/>
<path d="M93.4293 3.22497C94.4782 2.16264 96.164 2.16264 97.2129 3.22497C98.2619 4.2873 98.2619 5.99462 97.2129 7.05695C96.164 8.11928 94.4782 8.11928 93.4293 7.05695C92.3803 6.03256 92.3803 4.2873 93.4293 3.22497ZM93.167 30.542V11.1166H97.4752V26.1789C97.4752 28.6071 95.5646 30.542 93.167 30.542Z" fill="#FF4646"/>
<path d="M47.0151 28.9865V37.1816C47.0151 39.6098 45.0671 41.5447 42.707 41.5447V20.9811C42.707 17.832 43.681 15.3659 45.6291 13.5827C47.5771 11.7995 49.8997 10.8889 52.5595 10.8889C55.2942 10.8889 57.6543 11.8374 59.5274 13.8103C61.4754 15.7832 62.4119 18.0976 62.4119 20.8293C62.4119 23.5989 61.4754 25.9512 59.5648 27.8862C57.6917 29.7832 55.3317 30.7697 52.522 30.7697C50.4242 30.7697 48.3638 30.0488 47.6145 29.4418L47.0151 28.9865ZM52.5595 15.1003C49.3752 15.1003 47.0151 17.5664 47.0151 20.8293C47.0151 24.1681 49.4502 26.5583 52.5595 26.5583C55.6688 26.5583 58.1038 24.1301 58.1038 20.8293C58.1038 17.5664 55.6688 15.1003 52.5595 15.1003Z" fill="#4900A6"/>
<path d="M36.9756 21.1706C36.9382 22.5744 36.3762 23.8264 35.3273 24.8887C34.2034 26.0269 32.8923 26.5581 31.3938 26.596C30.4947 26.5581 29.6706 26.3684 28.8839 25.9131L39.4481 15.2139C39.4481 15.2139 36.5635 10.9646 31.3189 10.8887C28.5842 10.8508 26.299 11.8752 24.3885 13.7722C22.4404 15.7451 21.5039 18.0594 21.5039 20.8291C21.5039 23.5987 22.4404 25.9131 24.351 27.8481C26.299 29.821 28.5842 30.7695 31.3189 30.7695C34.0161 30.7315 36.3013 29.783 38.2493 27.8101C40.0849 25.951 41.0215 23.7505 41.1339 21.1326H36.9756V21.1706ZM27.3105 16.7315C28.4343 15.5933 29.7455 15.0622 31.244 15.1001C31.9932 15.1001 32.8548 15.3657 33.5666 15.6692L26.1866 23.1055C25.812 22.3467 25.6622 21.5879 25.6622 20.7532C25.6247 19.1977 26.1866 17.8697 27.3105 16.7315Z" fill="#4900A6"/>
<path d="M19.7049 20.2602C19.5925 17.6802 18.656 15.4797 16.8953 13.6206C15.0222 11.7236 12.6621 10.7371 9.85245 10.7371C7.75459 10.7371 5.69419 11.458 4.94495 12.065L4.3081 12.5203V0C1.94801 0 0 1.9729 0 4.36314V19.084V20.374V30.542H4.3081V20.374C4.45795 17.2249 6.81804 14.9485 9.85245 14.9485C12.8494 14.9485 15.2469 17.2249 15.3968 20.374V30.542H19.7049V20.2602Z" fill="#4900A6"/>
<path d="M86.6109 11.1165V21.2845C86.5735 22.1571 86.3487 22.9918 86.0115 23.7127C85.9741 23.7885 85.9366 23.8644 85.8992 23.9403C84.9626 25.6476 83.1644 26.71 81.104 26.71C79.0437 26.71 77.2829 25.6476 76.3089 23.9403C76.2715 23.8644 76.234 23.7885 76.1966 23.7127C75.8219 22.9918 75.6346 22.1571 75.5972 21.2845V11.1165H71.2891V21.2845V21.3983C71.4014 23.9782 72.338 26.1788 74.0987 28.0379C75.8969 29.859 78.1071 30.8075 80.7294 30.9213C80.8418 30.9213 80.9917 30.9213 81.104 30.9213C81.104 30.9213 81.1041 30.9213 81.1415 30.9213C81.1415 30.9213 81.1415 30.9213 81.179 30.9213C81.2914 30.9213 81.4412 30.9213 81.5536 30.9213C84.1759 30.8455 86.3862 29.8969 88.1843 28.0379C89.9825 26.1788 90.919 24.0162 90.994 21.3983V21.2845V11.1165H86.6109Z" fill="#4900A6"/>
<path d="M86.4985 33.1978C86.3862 33.7669 86.2363 34.336 85.9741 34.8292C85.9366 34.9051 85.8992 34.981 85.8617 35.0568C84.9251 36.7641 83.127 37.8265 81.0666 37.8265C79.0062 37.8265 77.2455 36.7641 76.2715 35.0568C76.234 34.981 76.1966 34.9051 76.1591 34.8292C75.8969 34.336 75.747 33.8048 75.6346 33.1978H71.2891C71.5138 35.4742 72.4504 37.4471 74.0612 39.1544C75.8594 40.9755 78.0696 41.924 80.692 41.9999C80.8043 41.9999 80.9542 41.9999 81.0666 41.9999C81.0666 41.9999 81.0666 41.9999 81.104 41.9999C81.104 41.9999 81.104 41.9999 81.1415 41.9999C81.2539 41.9999 81.4037 41.9999 81.5161 41.9999C84.1385 41.924 86.3487 40.9755 88.1469 39.1544C89.7952 37.4471 90.6943 35.5121 90.919 33.1978H86.4985Z" fill="#4900A6"/>
<path fill-rule="evenodd" clip-rule="evenodd" d="M64.3593 45.5338C64.3593 45.231 64.5841 45.0039 64.8838 45.0039C65.1835 45.0039 65.4083 45.231 65.4083 45.5338C65.4083 45.8366 65.1835 46.0637 64.8838 46.0637C64.5841 46.0637 64.3593 45.7988 64.3593 45.5338ZM64.3593 46.2908H65.3708V49.8866H64.3593V46.2908ZM61.1751 48.7132C61.1751 49.3945 60.7256 49.9623 59.5643 49.9623C58.6277 49.9623 58.0283 49.4324 58.0283 49.4324L58.4029 48.5996C58.9274 49.016 59.5643 49.016 59.5643 49.016C59.8639 49.016 60.1636 48.9781 60.1636 48.7889C60.1636 48.6375 59.9763 48.5996 59.5268 48.5239C58.5528 48.3725 58.1407 47.9562 58.1407 47.3506C58.1407 46.7071 58.6277 46.1772 59.6766 46.1772C59.6766 46.1772 60.5383 46.1772 61.0253 46.5936L60.6132 47.3506C60.6132 47.3506 60.276 47.0856 59.5643 47.0856C59.2271 47.0856 59.1522 47.1613 59.1522 47.2749C59.1522 47.3884 59.2271 47.4641 59.6017 47.502L59.6718 47.5168C60.3688 47.6641 61.1751 47.8344 61.1751 48.7132ZM70.4282 50.0001C71.4771 50.0001 72.2638 49.1295 72.2638 48.1076C72.2638 48.0697 72.2596 48.0319 72.2555 47.994C72.2471 47.9183 72.2388 47.8426 72.2638 47.7669H70.2409V48.5239H71.2149C71.065 48.8646 70.7653 49.0539 70.4282 49.0539C69.9412 49.0539 69.5291 48.6375 69.5291 48.1076C69.5291 47.5777 69.9412 47.1613 70.4282 47.1613C70.6904 47.1613 70.9526 47.2749 71.1025 47.502L72.0765 47.237C71.7768 46.6314 71.1774 46.2151 70.4282 46.2151C69.3792 46.2151 68.5176 47.0856 68.5176 48.1076C68.5176 49.1674 69.3792 50.0001 70.4282 50.0001ZM79.1568 48.1076C79.1568 49.1295 78.2951 50.0001 77.2088 50.0001C76.1224 50.0001 75.2607 49.1674 75.2607 48.1076C75.2607 47.0856 76.1224 46.2151 77.2088 46.2151C78.2951 46.2151 79.1568 47.0478 79.1568 48.1076ZM78.1453 48.1076C78.1453 47.5777 77.7332 47.1613 77.2088 47.1613C76.6843 47.1613 76.2722 47.5777 76.2722 48.1076C76.2722 48.6375 76.6843 49.0539 77.2088 49.0539C77.7332 49.0539 78.1453 48.5996 78.1453 48.1076ZM84.2516 49.8865H85.4504L84.5513 48.6753C85.0008 48.4861 85.2631 48.0319 85.2631 47.502C85.2631 46.7828 84.851 46.2908 83.9144 46.2908H82.3036V49.8865H83.315V48.7889H83.5023L84.2516 49.8865ZM83.802 47.1613C84.0643 47.1613 84.2516 47.2749 84.2516 47.5398C84.2516 47.8048 84.0643 47.9183 83.802 47.9183H83.315V47.1613H83.802ZM91.182 46.2908V47.237H90.2454V49.8865H89.1965V47.237H88.2974V46.2908H91.182ZM96.4266 49.8865H97.4756L95.9396 46.2908H95.0031L93.5421 49.8865H94.591L94.8158 49.2809H96.2019L96.4266 49.8865ZM95.565 47.502L95.9396 48.5239H95.1904L95.565 47.502Z" fill="#656565"/>
</g>
<defs>
<clipPath id="clip0_272_176">
<rect width="98" height="50" fill="white"/>
</clipPath>
</defs>
</svg>
