<?xml version="1.0" encoding="utf-8"?>
<!-- Generator: Adobe Illustrator 23.0.0, SVG Export Plug-In . SVG Version: 6.00 Build 0)  -->
<svg version="1.1" id="Layer_1" xmlns="http://www.w3.org/2000/svg" xmlns:xlink="http://www.w3.org/1999/xlink" x="0px" y="0px"
	 viewBox="0 0 315 57.4" style="enable-background:new 0 0 315 57.4;" xml:space="preserve">
<style type="text/css">
	.st0{fill-rule:evenodd;clip-rule:evenodd;fill:#008348;}
	.st1{fill:#008348;}
</style>
<g>
	<g>
		<g>
			<path class="st0" d="M87.1,25.6c0-1.5-0.3-2.6-1.1-3.4c-0.7-0.9-1.8-1.3-3.1-1.3c-1.3,0-2.3,0.4-3.2,1.3c-0.8,0.9-1.3,2-1.5,3.4
				H87.1 M93.2,27c0,1-0.1,1.9-0.2,2.8H78.3c0,4.4,2.2,6.6,6.5,6.6c2.5,0,4.8-0.5,6.9-1.5l0.6,4.7c-2.6,1-5.4,1.5-8.5,1.5
				c-7.8,0-11.8-4-11.8-12.1c0-3.7,1-6.8,3-9.1c2-2.4,4.7-3.5,8.2-3.5c3.3,0,5.8,1,7.6,3.1C92.4,21.3,93.2,23.8,93.2,27z"/>
			<path class="st0" d="M109.4,16.4l-0.3,6c-0.5-0.1-1-0.1-1.5-0.1c-3.4,0-5.1,2.9-5.1,8.7v9.7h-6.1V16.9h5.8c0,1.5-0.1,3.1-0.4,4.8
				h0.1C103.3,17.8,105.8,16.1,109.4,16.4"/>
			<path class="st0" d="M42.1,25.6c0-1.5-0.3-2.6-1.1-3.4c-0.7-0.9-1.8-1.3-3.1-1.3c-1.3,0-2.3,0.4-3.2,1.3c-0.8,0.9-1.3,2-1.5,3.4
				H42.1 M48.1,27c0,1-0.1,1.9-0.2,2.8H33.2c0,4.4,2.2,6.6,6.5,6.6c2.5,0,4.8-0.5,6.9-1.5l0.6,4.7c-2.6,1-5.4,1.5-8.5,1.5
				c-7.8,0-11.8-4-11.8-12.1c0-3.7,1-6.8,3-9.1c2-2.4,4.7-3.5,8.2-3.5c3.3,0,5.8,1,7.6,3.1C47.3,21.3,48.1,23.8,48.1,27z"/>
			<path class="st1" d="M17.8,43.1c0.6,1.1,0.9,2.2,0.9,3.2c0,2.5-1.9,4.6-5.6,6.2l-2.9-2.3c1.8-1.2,2.8-2.7,2.8-4.3
				c0-0.9-0.3-1.8-0.8-2.8H17.8"/>
			<path class="st1" d="M25,30.6c0,3.1-1.1,5.6-3.4,7.6c-2.4,2-5.5,3-9.4,3c-2.5,0-4.7-0.3-6.6-0.8l0.4-5.8c2.2,0.8,4.5,1.1,6.7,1.1
				c3.7,0,5.6-1.4,5.6-4.3c0-1.6-1.2-3-3.5-4c-4.1-1.8-6.3-2.8-6.5-3c-2.3-1.6-3.5-4-3.5-7c0-2.9,1.1-5.2,3.2-7
				c2.2-1.8,5.2-2.7,9-2.7c1.7,0,3.6,0.2,5.8,0.6l-0.3,5.4c-2-0.6-3.9-0.9-5.8-0.9c-1.8,0-3.1,0.4-4,1.1c-0.9,0.7-1.4,1.6-1.4,2.8
				c0,1.5,1.2,2.8,3.5,3.9c4,1.8,6.2,2.9,6.5,3.1C23.9,25.5,25,27.8,25,30.6"/>
			<polyline class="st1" points="72.5,40.6 64.8,40.6 57.5,28.9 57.5,40.6 51.3,40.6 51.3,5.7 57.5,5.7 57.5,26.8 64.4,16.9 
				71.8,16.9 63.5,27.7 72.5,40.6 			"/>
			<path class="st1" d="M123.6,25.8h41.2c0.1,1,0.2,2,0.2,3c0,13.1-10.6,23.8-23.8,23.8c-1,0-2-0.1-3-0.2V40.6h-17.6
				c-1.1-1.8-1.9-3.8-2.4-5.9h26v11.6c7.5-1.3,13.4-7.1,14.6-14.6h-41.2c-0.1-1-0.2-2-0.2-3C117.4,15.6,128,5,141.2,5
				c1,0,2,0.1,3,0.2v11.7h17.6c1.1,1.8,1.9,3.8,2.4,5.9h-26V11.2C130.7,12.4,124.8,18.3,123.6,25.8"/>
		</g>
		<g>
			<path class="st1" d="M183.1,41c-2.5,0-4.7-0.3-6.6-0.8l0.4-5.7c1,0.3,2.1,0.6,3.2,0.8c1.2,0.2,2.3,0.3,3.5,0.3c1.7,0,3-0.3,4.1-1
				c1-0.7,1.5-1.8,1.5-3.2c0-1.6-1.6-3.1-4.8-4.5c-3.2-1.4-5.4-2.6-6.8-3.5c-1.3-0.9-2-2.9-2-5.9c0-2.9,1.1-5.2,3.3-7
				c2.2-1.8,5.2-2.7,9-2.7c1,0,1.9,0,2.8,0.1c0.9,0.1,1.9,0.2,3,0.4l-0.3,5.4c-0.9-0.3-1.8-0.5-2.8-0.6c-1-0.2-2-0.2-2.9-0.2
				c-1.8,0-3.1,0.4-4,1.1c-0.9,0.7-1.4,1.7-1.4,2.9c0,1.5,1.6,3,4.8,4.4c3.2,1.4,5.4,2.6,6.8,3.6c1.4,0.9,2,2.8,2,5.7
				c0,3.1-1.1,5.6-3.4,7.6C190.1,40.1,187,41,183.1,41z"/>
			<path class="st1" d="M202,13.8c-1,0-1.9-0.4-2.7-1.1c-0.7-0.7-1.1-1.6-1.1-2.6c0-1,0.4-1.8,1.1-2.6c0.7-0.7,1.6-1.1,2.7-1.1
				c1,0,1.9,0.4,2.7,1.1s1.1,1.6,1.1,2.6c0,1.1-0.4,1.9-1.1,2.7S203,13.8,202,13.8z M198.9,40.6V16.8h6.1v23.8H198.9z"/>
			<path class="st1" d="M218.1,52.7c-3.2,0-5.7-0.6-7.5-1.8c-1.8-1.2-2.7-2.9-2.7-5.2c0-1.2,0.3-2.4,1-3.4c0.7-1,1.5-1.8,2.6-2.3
				c-0.8-0.4-1.3-0.9-1.7-1.5c-0.4-0.6-0.6-1.3-0.6-2.2c0-0.9,0.3-1.7,0.8-2.5c0.5-0.8,1.2-1.3,2.1-1.6c-1.1-0.6-2-1.4-2.6-2.6
				c-0.6-1.2-0.9-2.5-0.9-4c0-2.6,0.9-4.8,2.9-6.6c1.9-1.8,4.5-2.6,7.9-2.6c0.8,0,1.4,0,2,0.1c0.6,0.1,1.3,0.2,2.2,0.4h8v4.7h-3.3
				c0.8,0.7,1.2,1.8,1.2,3.2c0,2.7-0.9,4.8-2.7,6.4c-1.8,1.6-4.3,2.4-7.6,2.4c-0.3,0-0.7,0-1.1,0c-0.4,0-0.8-0.1-1.3-0.2
				c-0.8,0.4-1.1,0.9-1.1,1.5c0,0.6,0.3,1,0.8,1.2c0.5,0.2,1.5,0.3,2.9,0.3h3.7c2.6,0,4.6,0.6,6,1.8c1.4,1.2,2.1,2.9,2.1,5.2
				c0,2.6-1.2,4.9-3.6,6.7C225.1,51.8,222,52.7,218.1,52.7z M221.3,41.1h-5.3c-1.4,0.8-2.2,1.9-2.2,3.4c0,1.1,0.5,1.9,1.4,2.5
				c0.9,0.6,2.1,0.9,3.7,0.9c1.9,0,3.4-0.4,4.5-1.1c1.1-0.7,1.6-1.7,1.6-2.8c0-0.9-0.3-1.6-0.9-2.2
				C223.5,41.4,222.6,41.1,221.3,41.1z M219,20.7c-1.4,0-2.6,0.4-3.4,1.2c-0.8,0.8-1.3,1.8-1.3,3.1c0,1.3,0.4,2.4,1.2,3.1
				s2,1.1,3.5,1.1c1.4,0,2.5-0.4,3.3-1.1c0.8-0.7,1.2-1.8,1.2-3.1C223.6,22.2,222,20.7,219,20.7z"/>
			<path class="st1" d="M243.3,41c-3.5,0-6.3-1-8.2-2.9c-1.9-1.9-2.9-4.9-2.9-9.1c0-3.8,1.1-6.8,3.4-9.2c2.2-2.4,5.2-3.6,8.8-3.6
				c3.5,0,6.2,1,8.2,3c2,2,2.9,5,2.9,8.9c0,3.7-1.1,6.8-3.4,9.2C249.7,39.8,246.8,41,243.3,41z M243.9,21.5c-1.5,0-2.8,0.6-3.8,1.7
				c-1,1.2-1.6,2.9-1.6,5.2c0,4.9,1.8,7.4,5.3,7.4c1.6,0,2.8-0.6,3.8-1.9c1-1.3,1.5-3.1,1.5-5.4C249.1,23.9,247.3,21.5,243.9,21.5z"
				/>
			<path class="st1" d="M270.9,22.3c-0.5-0.1-1.1-0.1-1.5-0.1c-3.4,0-5.1,2.9-5.1,8.7v9.7h-6.1V16.8h5.8c0,0.7,0,1.5-0.1,2.3
				c-0.1,0.8-0.2,1.6-0.3,2.5c0.7-1.7,1.6-3,2.9-3.9c1.2-0.9,2.8-1.4,4.8-1.4L270.9,22.3z"/>
			<path class="st1" d="M283.8,41c-2.6,0-4.4-0.5-5.4-1.6c-1-1.1-1.5-3-1.5-5.8v-12h-4.1v-4.7h4.1V9.5l6.1-1.6v9h5.8v4.7H283V32
				c0,1.5,0.2,2.5,0.6,3.1c0.4,0.6,1.1,0.8,2.2,0.8c1.1,0,2-0.1,3-0.4v4.9C287.2,40.8,285.5,41,283.8,41z"/>
			<path class="st1" d="M304.3,40.6c0-0.7,0-1.4,0-2.1c0-0.7,0.1-1.3,0.2-1.9c-0.6,1.4-1.6,2.5-3,3.3c-1.3,0.8-2.9,1.2-4.7,1.2
				c-2.1,0-3.8-0.5-5-1.6c-1.2-1.1-1.8-2.6-1.8-4.6c0-2.8,1.2-5,3.7-6.5c2.5-1.5,5.8-2.2,10-2.2v-1.3c0-1.3-0.4-2.3-1.1-2.9
				c-0.7-0.6-1.9-0.9-3.6-0.9c-1.1,0-2.3,0.2-3.6,0.5c-1.3,0.3-2.4,0.8-3.5,1.4l-0.5-5.1c1.2-0.4,2.6-0.8,4.1-1.1
				c1.5-0.3,3-0.4,4.4-0.4c3.6,0,6.1,0.7,7.6,2.1c1.5,1.4,2.2,3.5,2.2,6.2v9.9l0.1,6.1H304.3z M303.9,30.1c-3,0-5.1,0.3-6.2,1
				c-1.2,0.7-1.7,1.6-1.7,2.7c0,0.8,0.2,1.4,0.7,1.8c0.5,0.5,1.2,0.7,2.1,0.7c1.5,0,2.7-0.6,3.7-1.7c1-1.1,1.4-2.5,1.4-4V30.1z"/>
		</g>
	</g>
</g>
</svg>
