<svg width="207px" height="54px" viewBox="0 0 207 54" fill="none" xmlns="http://www.w3.org/2000/svg" transform="rotate(0) scale(1, 1)">
<g clip-path="url(#clip0_1_311)">
<path d="M23.3379 4.34009C17.7285 4.34009 11.8534 6.64299 7.11502 11.7212C0.546164 18.7775 -1.74186 26.6605 1.38757 33.8792C2.53896 31.6649 4.07415 28.491 5.94886 26.4833C11.0563 21.0066 17.2709 18.8956 22.4669 18.8956C25.4045 18.8956 28.0025 19.5746 29.8772 20.7113C32.4604 22.2614 34.6599 24.7562 35.147 28.7419C40.9335 23.0437 42.513 13.6993 35.1618 8.20777C31.8109 5.71297 27.6482 4.34009 23.3379 4.34009Z" fill="#000000"/>
<path d="M21.168 19.7222C14.8205 19.7222 8.91596 23.2946 8.05979 30.6166C6.93792 40.153 13.123 50.3832 25.1388 53.1585C27.5744 53.7194 29.9215 53.9999 32.1357 53.9999C38.4389 53.9999 43.7087 51.7118 47.1777 47.0174C45.9229 47.0765 44.4173 47.165 42.8821 47.165C41.3469 47.165 39.8265 47.0765 38.4979 46.7665C27.0873 44.1388 21.4189 35.0158 21.5222 28.9338C21.5813 25.9223 22.6441 22.7779 25.8474 20.3569C24.3122 19.9288 22.7327 19.7222 21.1827 19.7222" fill="#000000"/>
<path d="M41.3321 42.0868C32.9033 45.7035 21.5665 38.0272 22.4079 28.8452C24.8288 31.9895 29.5524 33.3181 33.1542 31.2662C38.4388 28.2547 43.5315 18.8512 40.1069 7.66145C39.3098 5.03378 37.317 2.12564 35.9884 0.0146484C43.812 0.900378 49.4952 6.83477 52.3146 16.0316C55.9164 27.8266 50.1594 38.3077 41.3321 42.0868Z" fill="#000000"/>
<path d="M69.4084 34.3516L67.9027 35.2521C67.3418 34.2926 66.5299 33.8202 65.4671 33.8202C64.8176 33.8202 64.2566 34.0121 63.7548 34.4107C63.2086 34.824 62.9281 35.3554 62.9281 35.9755C62.9281 36.8759 63.6367 37.5993 65.039 38.1455L66.1314 38.5736C67.3418 39.046 68.2422 39.5922 68.8327 40.227C69.5413 40.9946 69.8955 41.9689 69.8955 43.1499C69.8955 44.5227 69.4232 45.6447 68.4932 46.5452C67.5632 47.4309 66.4266 47.8738 65.0538 47.8738C63.8286 47.8738 62.7953 47.4752 61.9096 46.6928C61.0386 45.8809 60.522 44.8623 60.3596 43.637L62.2638 43.2384C62.2638 44.0651 62.5296 44.7442 63.0905 45.2904C63.6662 45.8366 64.3747 46.1171 65.2014 46.1171C66.028 46.1171 66.6775 45.8218 67.1942 45.2461C67.7256 44.6556 68.0061 43.9618 68.0061 43.1499C68.0061 42.4118 67.7256 41.7917 67.1794 41.3046C66.8104 40.9651 66.2052 40.6255 65.3933 40.2712L64.3452 39.8284C63.3119 39.3855 62.5443 38.9131 62.0572 38.426C61.3929 37.7617 61.0534 36.9645 61.0534 35.9902C61.0534 34.8092 61.511 33.8497 62.4262 33.1116C63.2824 32.4178 64.3157 32.0635 65.5261 32.0635C67.268 32.0635 68.567 32.8311 69.4232 34.3516" fill="#000000"/>
<path d="M73.7926 47.549H71.9031V32.3883H73.7926V47.549ZM72.8478 27.8416C73.1873 27.8416 73.4678 27.9597 73.6892 28.2106C73.9254 28.432 74.0583 28.7273 74.0583 29.052C74.0583 29.3768 73.9402 29.6721 73.6892 29.9083C73.4678 30.1444 73.1726 30.2773 72.8478 30.2773C72.5231 30.2773 72.2278 30.1592 71.9769 29.9083C71.7407 29.6721 71.6078 29.3768 71.6078 29.052C71.6078 28.7273 71.7259 28.432 71.9769 28.2106C72.2131 27.9744 72.5083 27.8416 72.8478 27.8416Z" fill="#000000"/>
<path d="M84.4356 39.9022H90.4435V40.5074C90.4435 42.6184 89.7792 44.3751 88.4359 45.7775C87.0926 47.1652 85.3655 47.8738 83.2694 47.8738C81.1733 47.8738 79.3576 47.0914 77.8667 45.5413C76.361 43.9765 75.6082 42.1313 75.6082 40.0055C75.6082 37.8798 76.3758 35.9459 77.8962 34.3959C79.4462 32.8459 81.2914 32.0635 83.4613 32.0635C84.657 32.0635 85.7936 32.3292 86.886 32.8459C87.9783 33.3478 88.9083 34.0711 89.6464 35.0011L88.3178 36.2707C87.7717 35.5178 87.0631 34.9273 86.2069 34.4845C85.3508 34.0268 84.4651 33.8054 83.5499 33.8054C81.8671 33.8054 80.4205 34.4107 79.2395 35.6212C78.0734 36.8169 77.4977 38.2636 77.4977 39.9612C77.4977 41.6589 78.0734 43.017 79.21 44.2423C80.3909 45.5118 81.7785 46.1466 83.3875 46.1466C84.5979 46.1466 85.7198 45.7037 86.7531 44.8032C87.7864 43.9027 88.3178 42.8546 88.3621 41.6441H84.4356V39.917V39.9022Z" fill="#000000"/>
<path d="M99.197 32.0486C101.367 32.0486 103.227 32.831 104.792 34.381C106.356 35.931 107.139 37.7763 107.139 39.9463C107.139 42.1164 106.371 44.065 104.821 45.5855C103.286 47.106 101.396 47.8589 99.1823 47.8589C96.968 47.8589 95.0933 47.106 93.5434 45.5855C91.9934 44.065 91.2258 42.1902 91.2258 39.9463C91.2258 37.7025 92.0082 35.9163 93.5581 34.381C95.1229 32.831 96.9976 32.0486 99.1675 32.0486M99.1675 46.0874C100.821 46.0874 102.238 45.4969 103.434 44.3159C104.629 43.1202 105.22 41.6735 105.22 39.9463C105.22 38.2192 104.659 36.802 103.537 35.621C102.371 34.4105 100.909 33.8053 99.1675 33.8053C97.4256 33.8053 95.979 34.3958 94.8276 35.5915C93.691 36.7872 93.1153 38.2339 93.1153 39.9316C93.1153 41.6292 93.7058 43.1054 94.9014 44.3012C96.0971 45.4822 97.5142 46.0726 99.1675 46.0726" fill="#000000"/>
<path d="M113.619 40.9502L118.402 47.5489H116.114L111.656 41.1274H110.873V47.5489H108.984V32.3882H111.272C113.117 32.3882 114.46 32.6244 115.272 33.0968C115.907 33.4658 116.394 33.9677 116.748 34.632C117.103 35.2963 117.265 35.9901 117.265 36.7283C117.265 37.8354 116.926 38.7802 116.261 39.5921C115.597 40.3893 114.711 40.8469 113.634 40.9798M110.873 34.1006V39.5921H111.479C114.165 39.5921 115.508 38.6621 115.508 36.8168C115.508 34.9716 114.136 34.1006 111.39 34.1006H110.888H110.873Z" fill="#000000"/>
<path d="M123.982 34.1007V47.549H122.077V34.1007H118.49V32.3735H127.583V34.1007H123.982Z" fill="#000000"/>
<path d="M138.182 43.7404H131.229L129.502 47.549H127.465L134.698 31.7388L141.946 47.549H139.909L138.182 43.7404ZM137.4 42.0132L134.698 35.8722L131.997 42.0132H137.385H137.4Z" fill="#000000"/>
<path d="M67.0318 11.8687V23.708H63.0905V11.8687H59.8282V8.53247H70.2941V11.8687H67.0318Z" fill="#000000"/>
<path d="M75.682 2.7605C76.2282 2.7605 76.7006 2.95241 77.0696 3.35098C77.4534 3.72004 77.6453 4.19243 77.6453 4.73863C77.6453 5.28483 77.4534 5.75722 77.0696 6.14103C76.7006 6.51009 76.2282 6.702 75.682 6.702C75.1358 6.702 74.6635 6.51009 74.2797 6.14103C73.8959 5.75722 73.6892 5.28483 73.6892 4.73863C73.6892 4.19243 73.8811 3.72004 74.2797 3.35098C74.6635 2.96717 75.1358 2.7605 75.682 2.7605ZM80.8338 2.7605C81.3799 2.7605 81.8523 2.95241 82.2214 3.35098C82.6051 3.72004 82.797 4.19243 82.797 4.73863C82.797 5.28483 82.6051 5.75722 82.2214 6.14103C81.8523 6.51009 81.3799 6.702 80.8338 6.702C80.2876 6.702 79.8152 6.51009 79.4314 6.14103C79.0476 5.75722 78.8557 5.28483 78.8557 4.73863C78.8557 4.19243 79.0476 3.72004 79.4314 3.35098C79.8152 2.96717 80.2876 2.7605 80.8338 2.7605ZM80.9371 8.5325H84.8784V17.065C84.8784 18.3051 84.8046 19.2498 84.657 19.9289C84.4208 20.9327 83.9632 21.7594 83.2842 22.4237C82.1328 23.5456 80.45 24.1066 78.2505 24.1066C76.0511 24.1066 74.383 23.5456 73.2169 22.4237C72.5526 21.7594 72.095 20.9327 71.844 19.9289C71.6964 19.2646 71.6226 18.3051 71.6226 17.065V8.5325H75.5639V16.5188C75.5639 17.8031 75.6968 18.7332 75.9477 19.3089C76.3463 20.1946 77.1139 20.6375 78.2358 20.6375C79.3576 20.6375 80.1252 20.1946 80.5238 19.3089C80.7747 18.7332 80.9076 17.8031 80.9076 16.5188V8.5325H80.9371Z" fill="#000000"/>
<path d="M95.2114 17.4931L99.9794 23.708H95.0638L91.3439 17.8769H91.2996V23.708H87.3583V8.53247H93.2482C94.8276 8.53247 96.0824 8.90152 97.0123 9.65439C98.0161 10.4663 98.518 11.6325 98.518 13.1973C98.518 14.2897 98.2375 15.205 97.6766 15.9726C97.0714 16.7845 96.2447 17.2864 95.1967 17.4783M91.2996 11.544V15.3231H91.6834C93.5139 15.3231 94.4143 14.6883 94.4143 13.4335C94.4143 12.1787 93.4991 11.544 91.6834 11.544H91.2996Z" fill="#000000"/>
<path d="M105.028 14.7916L109.796 8.53247H114.682L108.644 15.7216L115.228 23.708H110.121L105.028 17.1241H104.984V23.708H101.042V8.53247H104.984V14.7916H105.028Z" fill="#000000"/>
<path d="M123.184 23.708V8.53247H127.14L134.359 17.8031H134.388V8.53247H138.33V23.708H134.388L127.17 14.4078H127.14V23.708H123.184Z" fill="#000000"/>
<path d="M144.854 23.7079H140.913V8.53242H144.854V23.6932V23.7079ZM142.906 2.83423C143.452 2.83423 143.924 3.02614 144.293 3.40995C144.677 3.77901 144.869 4.2514 144.869 4.7976C144.869 5.3438 144.677 5.81619 144.293 6.2C143.924 6.56906 143.452 6.76096 142.906 6.76096C142.36 6.76096 141.887 6.56906 141.503 6.2C141.12 5.81619 140.928 5.3438 140.928 4.7976C140.928 4.2514 141.12 3.77901 141.503 3.40995C141.887 3.02614 142.36 2.83423 142.906 2.83423Z" fill="#000000"/>
<path d="M147.423 23.708V8.53247H153.46C155.158 8.53247 156.486 8.93105 157.446 9.71344C158.464 10.5696 158.966 11.8392 158.966 13.5073C158.966 16.9469 157.18 18.6593 153.593 18.6593H151.364V23.6932H147.423V23.708ZM151.364 11.7211V15.5002H152.028C152.973 15.5002 153.637 15.4264 153.977 15.264C154.567 15.0131 154.863 14.4669 154.863 13.6549C154.863 12.843 154.582 12.2378 154.021 11.9721C153.667 11.8097 153.003 11.7359 152.028 11.7359H151.364V11.7211Z" fill="#000000"/>
<path d="M160.723 23.708V8.53247H166.76C168.458 8.53247 169.786 8.93105 170.746 9.71344C171.764 10.5696 172.266 11.8392 172.266 13.5073C172.266 16.9469 170.48 18.6593 166.893 18.6593H164.664V23.6932H160.723V23.708ZM164.664 11.7211V15.5002H165.328C166.273 15.5002 166.937 15.4264 167.277 15.264C167.867 15.0131 168.163 14.4669 168.163 13.6549C168.163 12.843 167.882 12.2378 167.321 11.9721C166.967 11.8097 166.303 11.7359 165.328 11.7359H164.664V11.7211Z" fill="#000000"/>
<path d="M181.64 8.03052C183.898 8.03052 185.832 8.75386 187.471 10.2006C189.168 11.7211 190.024 13.5959 190.024 15.8397C190.024 18.2902 189.227 20.3126 187.648 21.8774C186.083 23.4275 184.075 24.2098 181.64 24.2098C179.204 24.2098 177.182 23.4275 175.602 21.8774C174.038 20.3126 173.255 18.2902 173.255 15.8397C173.255 13.5959 174.111 11.7211 175.809 10.2006C177.448 8.75386 179.381 8.03052 181.64 8.03052ZM181.64 11.8539C180.474 11.8539 179.47 12.2525 178.628 13.0644C177.787 13.8616 177.359 14.8064 177.359 15.8545C177.359 17.1388 177.772 18.2164 178.614 19.0874C179.44 19.9436 180.459 20.3717 181.655 20.3717C182.85 20.3717 183.854 19.9436 184.695 19.0874C185.522 18.2164 185.935 17.1388 185.935 15.8545C185.935 14.7916 185.507 13.8616 184.666 13.0644C183.825 12.2525 182.821 11.8539 181.655 11.8539" fill="#000000"/>
<path d="M191.855 23.708V8.53247H195.796L203.029 17.8031H203.059V8.53247H207V23.708H203.059L195.84 14.4078H195.796V23.708H191.855Z" fill="#000000"/>
</g>
<defs>
<clipPath id="clip0_1_311">
<rect width="207" height="54" fill="#000000"/>
</clipPath>
</defs>
</svg>